<?xml version="1.0" standalone="no"?>
<!DOCTYPE svg PUBLIC "-//W3C//DTD SVG 20010904//EN"
 "http://www.w3.org/TR/2001/REC-SVG-20010904/DTD/svg10.dtd">
<svg version="1.0" xmlns="http://www.w3.org/2000/svg"
 width="5346.000000pt" height="5324.000000pt" viewBox="0 0 5346.000000 5324.000000"
 preserveAspectRatio="xMidYMid meet">

<g transform="translate(0.000000,5324.000000) scale(0.100000,-0.100000)"
fill="#000000" stroke="none">
<path d="M0 26620 l0 -26620 26730 0 26730 0 0 26559 0 26559 -77 17 c-229 50
-228 50 -231 78 l-3 27 -26575 0 -26574 0 0 -26620z m27615 22691 c110 -6 308
-18 440 -26 2355 -151 4673 -671 6865 -1540 3880 -1537 7283 -4136 9804 -7484
507 -674 1019 -1439 1438 -2151 655 -1113 1239 -2334 1684 -3522 1460 -3896
1819 -8100 1044 -12213 -482 -2560 -1432 -5066 -2777 -7329 -1395 -2346 -3224
-4448 -5358 -6157 -2731 -2187 -5900 -3706 -9295 -4453 -1270 -279 -2439 -433
-3870 -508 -331 -18 -1699 -18 -2030 0 -1431 75 -2600 229 -3870 508 -5052
1112 -9595 3943 -12846 8004 -2172 2714 -3691 5872 -4439 9230 -633 2845 -713
5824 -234 8695 462 2767 1432 5416 2866 7829 1668 2806 3943 5244 6633 7107
3519 2439 7656 3832 11900 4009 140 6 289 12 330 14 165 7 1528 -3 1715 -13z"/>
<path d="M25885 47999 c-3505 -115 -6880 -1071 -9915 -2809 -1413 -809 -2727
-1777 -3950 -2909 -370 -344 -992 -977 -1360 -1386 -1618 -1797 -2949 -3911
-3865 -6135 -1017 -2473 -1550 -5032 -1604 -7714 -81 -3956 924 -7808 2929
-11231 774 -1320 1712 -2580 2789 -3745 202 -219 970 -982 1191 -1184 2603
-2382 5635 -4049 8990 -4942 1480 -395 2930 -615 4570 -696 335 -17 1495 -17
1830 0 1640 81 3091 302 4570 696 3191 849 6107 2408 8615 4605 586 513 1271
1191 1815 1796 996 1106 1906 2364 2651 3661 389 679 795 1493 1107 2219 1325
3090 1897 6476 1667 9865 -216 3165 -1129 6218 -2693 9000 -797 1419 -1770
2755 -2917 4010 -230 251 -971 993 -1230 1231 -2537 2332 -5505 3989 -8785
4902 -1865 520 -3820 782 -5770 775 -223 0 -508 -5 -635 -9z m-1161 -1164 c32
-218 57 -397 55 -399 -2 -2 -339 -54 -749 -116 -410 -61 -747 -114 -749 -116
-7 -7 221 -1518 231 -1528 5 -6 232 24 598 79 325 48 592 86 594 84 7 -8 122
-790 117 -793 -3 -2 -271 -43 -596 -92 -324 -48 -591 -89 -593 -90 -3 -2 237
-1617 241 -1620 1 -1 339 49 752 112 412 62 751 111 753 109 6 -6 122 -788
118 -793 -3 -2 -346 -55 -763 -118 -417 -63 -951 -143 -1187 -179 -236 -36
-430 -64 -432 -62 -1 1 -68 439 -148 972 -80 534 -240 1600 -356 2370 -328
2184 -333 2215 -329 2219 5 4 2328 354 2359 355 l25 1 59 -395z m4979 231
c274 -52 500 -96 501 -97 2 -2 62 -776 135 -1719 73 -943 134 -1716 135 -1718
2 -1 10 37 19 85 65 361 599 3178 602 3181 4 5 766 -136 772 -142 3 -3 -268
-1447 -946 -5049 -49 -257 -91 -470 -93 -473 -3 -2 -205 33 -449 79 -398 75
-444 85 -447 103 -1 10 -74 946 -162 2079 -88 1133 -161 2063 -163 2067 -1 5
-73 -371 -160 -835 -504 -2677 -588 -3121 -591 -3124 -1 -2 -178 30 -392 71
l-389 73 3 29 c2 16 113 614 248 1329 135 715 362 1921 505 2680 143 759 264
1405 270 1436 l11 56 46 -9 c26 -4 271 -50 545 -102z m-10783 -3576 c607
-1070 1226 -2162 1377 -2427 150 -264 273 -486 273 -491 0 -5 -46 -36 -102
-68 -57 -31 -217 -122 -356 -201 -140 -79 -258 -143 -264 -141 -9 3 -385 663
-1648 2890 -167 296 -305 536 -307 535 -1 -2 131 -349 293 -772 162 -424 326
-851 364 -950 38 -99 226 -591 419 -1094 263 -684 348 -917 339 -923 -50 -31
-720 -409 -722 -406 -2 1 -358 442 -791 978 -434 536 -989 1223 -1233 1525
-245 303 -451 557 -460 565 -9 9 -7 1 5 -20 116 -198 1913 -3373 1911 -3375
-11 -10 -662 -375 -669 -375 -4 0 -58 89 -120 198 -143 251 -957 1688 -1913
3372 -410 723 -743 1317 -738 1321 14 14 1050 599 1060 599 5 0 564 -690 1242
-1532 678 -843 1243 -1544 1256 -1558 l24 -24 -19 49 c-31 82 -1044 2722
-1236 3223 -98 254 -176 464 -174 466 2 2 242 139 534 305 408 232 532 298
541 288 6 -6 507 -887 1114 -1957z m17632 1303 c250 -146 337 -202 334 -214
-2 -9 -486 -835 -1077 -1835 -590 -1000 -1097 -1862 -1126 -1914 -101 -181
-128 -332 -81 -457 45 -122 221 -256 380 -289 149 -31 288 30 405 177 28 36
168 263 311 504 688 1166 1579 2676 1767 2997 116 197 214 357 218 358 10 0
687 -398 705 -415 11 -10 -160 -307 -959 -1661 -1280 -2171 -1257 -2134 -1351
-2259 -454 -605 -1065 -714 -1731 -309 -454 277 -674 641 -654 1084 6 138 25
235 77 391 70 210 -52 -2 2077 3606 l285 483 41 -25 c23 -13 194 -114 379
-222z m-9322 -3463 c1393 -66 2694 -306 3980 -733 1930 -642 3672 -1658 5220
-3045 236 -211 879 -854 1082 -1082 920 -1032 1643 -2091 2237 -3277 1218
-2436 1726 -5103 1496 -7848 -194 -2307 -949 -4555 -2198 -6545 -710 -1130
-1602 -2193 -2597 -3094 -2407 -2178 -5442 -3498 -8650 -3760 -453 -37 -561
-41 -1225 -41 -664 0 -772 4 -1225 41 -5090 416 -9625 3485 -11935 8074 -1036
2059 -1566 4295 -1565 6605 1 2728 744 5355 2178 7695 445 728 991 1456 1610
2150 203 228 846 871 1082 1082 1325 1187 2770 2089 4395 2743 1501 604 3117
954 4770 1034 251 12 1097 12 1345 1z m-18508 -12415 c169 -58 378 -422 433
-754 42 -248 -11 -503 -143 -698 -40 -59 -72 -93 -188 -198 -71 -64 -107 -133
-123 -235 -12 -72 -14 -286 -4 -368 l6 -53 64 63 c36 35 86 92 111 128 226
317 406 535 622 751 306 307 578 491 812 551 138 35 271 16 320 -46 18 -21 24
-72 10 -92 -4 -6 -325 -315 -715 -687 -602 -575 -725 -688 -830 -761 -67 -48
-157 -119 -200 -159 l-78 -72 153 -135 c1557 -1378 1673 -1482 1671 -1506 -4
-48 -53 -135 -108 -193 -57 -60 -137 -108 -196 -117 -34 -6 -35 -5 -259 258
-268 313 -725 837 -922 1056 -182 203 -431 472 -433 469 -2 -2 0 -34 55 -1022
46 -802 50 -716 -40 -759 -35 -16 -64 -21 -130 -21 -75 0 -93 4 -153 32 l-68
32 6 48 c5 46 41 562 85 1217 11 165 18 301 17 303 -11 11 -993 -1107 -1352
-1539 -44 -53 -86 -97 -93 -97 -31 -2 -129 42 -179 80 -60 45 -139 156 -163
228 l-14 43 45 36 c81 67 222 195 398 362 256 241 1296 1265 1314 1294 16 24
16 25 -70 106 -107 99 -194 163 -276 200 -81 36 -124 47 -249 64 -169 22 -292
82 -413 201 -102 100 -815 980 -815 1006 0 15 5 20 20 17 11 -2 186 -166 389
-365 380 -374 404 -392 429 -346 8 13 -9 36 -83 112 -51 53 -215 228 -364 390
-266 288 -294 325 -254 338 6 2 181 -157 388 -354 298 -282 383 -358 404 -358
16 0 27 6 29 17 2 12 -106 128 -326 350 -397 402 -414 421 -406 442 3 9 12 16
19 16 7 0 190 -158 406 -350 267 -237 400 -350 413 -348 10 2 24 11 30 22 10
16 -35 63 -368 391 -280 275 -378 377 -373 389 4 9 12 16 19 16 19 0 734 -564
845 -666 106 -98 223 -233 276 -321 41 -67 76 -201 77 -289 0 -63 23 -142 63
-218 38 -72 254 -277 268 -254 16 24 10 379 -7 469 -28 148 -76 240 -154 294
-54 37 -147 157 -186 240 -54 112 -74 209 -74 349 1 142 14 226 64 396 73 246
210 485 325 564 79 55 145 67 223 41z m36221 -18 c160 -94 338 -417 392 -712
23 -120 16 -339 -12 -440 -58 -203 -145 -337 -307 -469 -117 -96 -151 -221
-139 -518 l6 -162 69 74 c39 41 115 138 171 215 474 654 952 1086 1332 1205
198 61 375 21 375 -87 0 -37 -11 -48 -711 -718 -591 -565 -730 -693 -823 -757
-103 -71 -283 -223 -285 -240 -1 -7 515 -468 1442 -1288 366 -324 378 -335
373 -365 -20 -98 -120 -221 -220 -270 -110 -54 -91 -67 -362 250 -467 545
-1048 1201 -1258 1420 l-77 80 5 -115 c3 -63 24 -449 47 -857 23 -408 39 -749
36 -758 -4 -9 -33 -28 -64 -43 -49 -23 -71 -27 -143 -27 -71 1 -95 5 -143 27
-31 15 -60 35 -64 44 -3 9 -1 89 5 178 17 226 79 1139 88 1271 6 105 6 109
-11 95 -75 -61 -1028 -1147 -1355 -1543 -74 -90 -76 -91 -186 -37 -82 40 -165
128 -210 224 -20 42 -34 79 -32 84 1 5 37 37 78 71 179 150 922 864 1488 1433
l213 214 -98 88 c-198 178 -330 243 -533 261 -145 13 -302 94 -418 214 -104
109 -803 974 -800 990 9 48 44 19 407 -343 380 -380 396 -393 431 -351 10 13
-3 31 -81 113 -52 54 -215 229 -364 390 -263 285 -302 337 -254 337 9 0 186
-161 394 -357 377 -359 412 -386 429 -342 4 11 -101 125 -364 391 -219 223
-370 384 -370 395 0 10 7 21 15 24 9 4 150 -115 400 -338 213 -188 395 -347
405 -352 23 -10 50 8 50 33 0 10 -42 58 -92 107 -550 533 -658 642 -652 657 3
10 12 17 20 17 23 0 762 -588 873 -695 119 -115 216 -232 260 -315 34 -63 61
-175 61 -249 0 -56 23 -150 51 -208 30 -62 82 -121 190 -217 l96 -85 6 152
c10 231 -13 399 -70 511 -16 31 -63 88 -123 146 -104 102 -152 173 -193 287
-70 194 -61 404 30 703 87 286 248 523 392 577 51 19 133 10 184 -20z m-8475
-16615 c594 -1049 1099 -1948 1122 -1996 121 -264 177 -548 151 -766 -42 -346
-227 -625 -566 -853 -387 -259 -782 -351 -1120 -260 -289 78 -562 300 -777
633 -31 47 -437 758 -903 1580 -466 822 -947 1670 -1068 1884 -122 214 -217
391 -212 393 6 2 179 100 385 218 282 161 378 210 386 202 6 -7 427 -745 934
-1642 1267 -2236 1237 -2184 1282 -2243 82 -105 176 -171 278 -193 161 -34
428 107 506 268 53 108 43 251 -30 408 -18 39 -252 457 -521 930 -268 473
-746 1317 -1062 1875 -317 558 -581 1025 -589 1037 -13 21 -3 27 349 227 199
113 365 206 368 206 3 0 492 -859 1087 -1908z m-18155 1542 c293 -152 536
-280 540 -284 5 -4 -143 -468 -328 -1031 -477 -1451 -830 -2524 -875 -2664
-27 -83 -34 -114 -22 -99 9 11 539 739 1177 1617 638 878 1165 1596 1170 1594
22 -5 1085 -560 1085 -566 0 -9 -2580 -4975 -2588 -4982 -8 -7 -742 372 -742
383 0 6 565 1097 1781 3437 21 41 32 68 25 60 -13 -13 -684 -934 -1796 -2464
-287 -396 -530 -728 -540 -738 -16 -17 -33 -10 -381 171 -200 105 -365 196
-367 204 -1 8 226 718 507 1578 692 2129 709 2180 706 2180 -1 0 -407 -778
-901 -1730 -494 -951 -901 -1730 -904 -1730 -22 0 -675 350 -675 361 0 21
2576 4979 2587 4979 5 0 248 -124 541 -276z m12486 -1891 c5 -21 60 -258 121
-528 138 -611 388 -1712 799 -3520 175 -770 317 -1401 316 -1402 -3 -5 -887
-204 -890 -201 -1 2 -440 830 -975 1840 -536 1011 -975 1836 -977 1835 -2 -2
194 -874 436 -1938 241 -1064 441 -1945 442 -1959 4 -24 3 -24 -381 -112 -212
-48 -387 -84 -391 -80 -3 4 -151 648 -329 1432 -177 784 -457 2015 -621 2735
-163 721 -296 1311 -296 1312 1 1 245 56 541 124 468 106 541 120 550 107 6
-8 368 -691 805 -1517 437 -825 796 -1500 798 -1498 2 3 -612 2722 -718 3180
-6 26 -10 49 -8 51 4 2 742 172 761 175 4 1 12 -16 17 -36z m-6154 -454 c644
-106 1172 -194 1173 -195 5 -4 -126 -785 -132 -791 -3 -3 -341 50 -751 117
-410 68 -746 121 -748 119 -5 -6 -258 -1531 -255 -1534 2 -1 268 -45 592 -98
324 -54 592 -100 595 -103 6 -6 -119 -776 -128 -786 -3 -4 -271 37 -596 91
-523 87 -591 96 -597 82 -9 -21 -268 -1594 -263 -1599 2 -2 337 -59 745 -127
408 -68 744 -126 747 -129 6 -6 -118 -772 -127 -785 -3 -5 -538 80 -1190 188
l-1185 197 2 30 c2 16 82 506 178 1089 97 583 299 1807 450 2720 151 913 278
1673 281 1688 4 20 11 26 22 23 10 -2 544 -91 1187 -197z"/>
<path d="M25990 40010 c-1538 -74 -2985 -386 -4392 -949 -1822 -728 -3495
-1880 -4841 -3331 -1151 -1242 -2051 -2670 -2662 -4230 -919 -2344 -1157
-4906 -684 -7392 432 -2272 1469 -4426 2979 -6188 429 -499 979 -1051 1475
-1476 2117 -1818 4742 -2925 7526 -3173 437 -39 613 -46 1184 -46 571 0 747 7
1184 46 2493 222 4837 1122 6846 2628 520 389 939 754 1431 1246 331 331 477
487 723 774 1048 1222 1876 2645 2424 4161 953 2639 1050 5526 275 8230 -1095
3825 -3877 6998 -7536 8596 -1449 633 -2939 989 -4582 1094 -220 15 -1117 21
-1350 10z m900 -7546 c123 -28 258 -111 349 -215 148 -172 197 -436 120 -649
-37 -101 -50 -93 166 -112 245 -22 387 -41 671 -88 1686 -283 3265 -1049 4553
-2208 134 -121 631 -617 631 -631 0 -5 -98 -12 -217 -15 -120 -4 -317 -11
-438 -16 -852 -38 -1860 -62 -2077 -50 -445 25 -934 89 -1338 175 -538 115
-896 261 -1093 443 -154 143 -555 414 -742 503 -373 175 -892 272 -1365 256
-202 -7 -313 -21 -645 -76 -132 -22 -559 -93 -950 -156 -1622 -265 -2840 -477
-2933 -511 -87 -32 -128 -107 -82 -149 38 -35 87 -34 1200 30 338 19 741 42
895 50 154 8 345 19 425 25 80 6 458 28 840 50 382 21 772 44 865 49 319 20
508 24 551 12 81 -22 131 -88 141 -185 7 -68 -21 -111 -99 -150 -66 -33 -126
-39 -548 -56 -218 -8 -841 -39 -1625 -80 -110 -6 -270 -15 -355 -20 -85 -6
-339 -22 -565 -35 -225 -14 -527 -34 -670 -45 -143 -11 -323 -24 -400 -30
-201 -15 -512 -48 -568 -61 -121 -28 -145 -139 -39 -180 19 -8 728 -9 2343 -4
2160 7 2319 6 2375 -9 72 -21 129 -57 147 -93 9 -17 14 -59 15 -103 0 -118
-38 -163 -169 -196 -59 -15 -228 -16 -2174 -8 -2446 9 -2506 9 -2555 -14 -70
-34 -66 -110 8 -150 35 -20 79 -28 260 -47 373 -41 1565 -123 2457 -170 723
-37 1297 -66 1510 -75 381 -16 448 -20 505 -36 138 -39 184 -139 121 -262 -56
-109 -97 -114 -646 -82 -99 6 -493 29 -875 51 -382 21 -801 46 -930 54 -129 8
-561 33 -960 55 -399 22 -792 44 -875 50 -82 5 -244 12 -360 16 -206 6 -211 6
-237 -16 -51 -40 -28 -104 52 -145 17 -9 102 -30 188 -46 400 -77 1828 -321
2832 -484 360 -58 772 -126 915 -150 361 -61 446 -69 715 -69 251 0 384 11
600 50 232 42 529 134 685 211 173 87 576 363 719 493 121 109 263 190 483
273 443 169 1191 303 1928 347 251 14 1402 -7 2110 -40 116 -5 291 -12 390
-15 99 -3 270 -10 380 -15 110 -5 270 -12 355 -16 85 -3 169 -7 185 -9 17 -2
33 -4 37 -4 21 -2 308 -449 473 -736 639 -1112 1048 -2421 1150 -3680 9 -110
19 -219 21 -242 l5 -43 449 0 c358 0 464 -3 528 -15 230 -44 430 -153 594
-323 161 -168 258 -357 299 -582 17 -96 14 -310 -6 -405 -70 -335 -281 -617
-575 -769 -113 -58 -210 -92 -317 -110 -78 -14 -910 -16 -7468 -19 -4059 -1
-8525 0 -9925 3 l-2545 5 -95 28 c-419 123 -718 443 -805 862 -20 95 -23 310
-6 405 41 226 138 414 299 582 152 158 325 256 562 319 30 8 190 14 470 18
l425 6 11 150 c6 83 17 207 24 277 l13 127 64 11 c192 33 463 71 573 80 187
15 1152 30 1765 28 981 -3 2722 -35 3970 -73 99 -3 403 -12 675 -20 272 -8
628 -19 790 -25 162 -6 567 -19 900 -30 333 -11 724 -25 870 -30 146 -6 564
-22 930 -35 366 -14 775 -29 910 -35 135 -6 578 -24 985 -40 407 -17 832 -34
945 -40 619 -30 707 -32 737 -17 62 33 122 98 160 175 38 75 38 77 38 197 0
98 -4 134 -24 195 -54 172 -176 389 -288 510 -259 280 -811 589 -1493 834
-733 265 -1538 430 -2475 507 -215 18 -341 22 -730 23 -861 1 -1547 -72 -2350
-250 -527 -117 -1149 -306 -1363 -413 -191 -96 -476 -276 -792 -501 l-166
-118 -154 4 c-796 20 -1564 45 -1820 59 -96 5 -229 10 -490 20 -80 3 -179 8
-220 10 -41 2 -138 7 -215 10 -77 3 -180 8 -230 11 -49 2 -274 13 -498 24
-296 14 -457 27 -585 45 -97 14 -183 28 -190 30 -17 6 -15 18 63 290 235 815
595 1615 1054 2338 1122 1767 2829 3101 4801 3754 623 206 1223 336 1875 407
127 14 280 29 342 32 l112 7 -13 26 c-38 72 -60 177 -60 276 0 192 58 331 193
466 47 47 111 99 141 116 147 83 315 106 490 67z"/>
</g>
</svg>
